<mxfile modified="2023-03-15T22:04:25.643Z" host="Electron" agent="5.0 (Windows NT 10.0; Win64; x64) AppleWebKit/537.36 (KHTML, like Gecko) draw.io/20.3.0 Chrome/104.0.5112.114 Electron/20.1.3 Safari/537.36" etag="H_MfKDqUT7kWMdUvmtO4" compressed="false" version="20.3.0" type="device">
  <diagram id="qrFjZdkasv-aO2LJt9ou" name="Functionality/Diagnostics/Logs">
    <mxGraphModel dx="1609" dy="517" grid="1" gridSize="10" guides="1" tooltips="1" connect="1" arrows="1" fold="1" page="1" pageScale="1" pageWidth="827" pageHeight="1169" math="0" shadow="0">
      <root>
        <mxCell id="D4k8mGF5kEXI2dwwQXFX-0" />
        <mxCell id="D4k8mGF5kEXI2dwwQXFX-1" parent="D4k8mGF5kEXI2dwwQXFX-0" />
        <mxCell id="D4k8mGF5kEXI2dwwQXFX-11" value="To be valuable for diagnostic purposes Log entries must contain: Host Device Identifier, UTC datetime, thread, sessionId, principalId, tenantId,&amp;nbsp; memberId, Id,Message,&amp;nbsp;" style="shape=note;whiteSpace=wrap;html=1;size=14;verticalAlign=top;align=left;spacingTop=-6;strokeWidth=1;fontSize=12;fontStyle=2;spacingRight=16;" parent="D4k8mGF5kEXI2dwwQXFX-1" vertex="1">
          <mxGeometry x="410" y="160" width="160" height="120" as="geometry" />
        </mxCell>
        <mxCell id="FrWV9Yk9Voi0F-BZQr_6-6" value="" style="fontStyle=1;align=center;verticalAlign=top;childLayout=stackLayout;horizontal=1;horizontalStack=0;resizeParent=1;resizeParentMax=0;resizeLast=0;marginBottom=0;strokeColor=#d6b656;strokeWidth=2;fillColor=none;" parent="D4k8mGF5kEXI2dwwQXFX-1" vertex="1">
          <mxGeometry x="260" y="160" width="130" height="32" as="geometry" />
        </mxCell>
        <mxCell id="FrWV9Yk9Voi0F-BZQr_6-7" value="Write Entry to &lt;br&gt;Diagnostics Log" style="html=1;align=left;spacingLeft=4;verticalAlign=middle;strokeColor=none;fillColor=none;fontStyle=1" parent="FrWV9Yk9Voi0F-BZQr_6-6" vertex="1">
          <mxGeometry width="130" height="24" as="geometry" />
        </mxCell>
        <mxCell id="FrWV9Yk9Voi0F-BZQr_6-8" value="" style="shape=ellipse;" parent="FrWV9Yk9Voi0F-BZQr_6-7" vertex="1">
          <mxGeometry x="1" width="20" height="16" relative="1" as="geometry">
            <mxPoint x="-25" y="7" as="offset" />
          </mxGeometry>
        </mxCell>
        <mxCell id="FrWV9Yk9Voi0F-BZQr_6-9" value="" style="line;strokeWidth=1;fillColor=none;align=left;verticalAlign=middle;spacingTop=-1;spacingLeft=3;spacingRight=3;rotatable=0;labelPosition=right;points=[];portConstraint=eastwest;" parent="FrWV9Yk9Voi0F-BZQr_6-6" vertex="1">
          <mxGeometry y="24" width="130" height="8" as="geometry" />
        </mxCell>
        <mxCell id="FrWV9Yk9Voi0F-BZQr_6-13" value="" style="fontStyle=1;align=center;verticalAlign=top;childLayout=stackLayout;horizontal=1;horizontalStack=0;resizeParent=1;resizeParentMax=0;resizeLast=0;marginBottom=0;strokeColor=#d6b656;strokeWidth=2;fillColor=none;" parent="D4k8mGF5kEXI2dwwQXFX-1" vertex="1">
          <mxGeometry x="260" y="240" width="130" height="38" as="geometry" />
        </mxCell>
        <mxCell id="FrWV9Yk9Voi0F-BZQr_6-14" value="Retrieve Paged,&lt;br&gt;Filtered List of &lt;br&gt;SummaryItems of &lt;br&gt;Log Entries" style="html=1;align=left;spacingLeft=4;verticalAlign=middle;strokeColor=none;fillColor=none;fontStyle=1" parent="FrWV9Yk9Voi0F-BZQr_6-13" vertex="1">
          <mxGeometry width="130" height="30" as="geometry" />
        </mxCell>
        <mxCell id="FrWV9Yk9Voi0F-BZQr_6-15" value="" style="shape=ellipse;" parent="FrWV9Yk9Voi0F-BZQr_6-14" vertex="1">
          <mxGeometry x="1" width="20" height="16" relative="1" as="geometry">
            <mxPoint x="-25" y="7" as="offset" />
          </mxGeometry>
        </mxCell>
        <mxCell id="FrWV9Yk9Voi0F-BZQr_6-16" value="" style="line;strokeWidth=1;fillColor=none;align=left;verticalAlign=middle;spacingTop=-1;spacingLeft=3;spacingRight=3;rotatable=0;labelPosition=right;points=[];portConstraint=eastwest;" parent="FrWV9Yk9Voi0F-BZQr_6-13" vertex="1">
          <mxGeometry y="30" width="130" height="8" as="geometry" />
        </mxCell>
        <mxCell id="FrWV9Yk9Voi0F-BZQr_6-18" value="" style="fontStyle=1;align=center;verticalAlign=top;childLayout=stackLayout;horizontal=1;horizontalStack=0;resizeParent=1;resizeParentMax=0;resizeLast=0;marginBottom=0;strokeColor=#d6b656;strokeWidth=2;fillColor=none;" parent="D4k8mGF5kEXI2dwwQXFX-1" vertex="1">
          <mxGeometry x="260" y="320" width="130" height="40" as="geometry" />
        </mxCell>
        <mxCell id="FrWV9Yk9Voi0F-BZQr_6-19" value="View single &lt;br&gt;Log Entry" style="html=1;align=left;spacingLeft=4;verticalAlign=middle;strokeColor=none;fillColor=none;fontStyle=1" parent="FrWV9Yk9Voi0F-BZQr_6-18" vertex="1">
          <mxGeometry width="130" height="24" as="geometry" />
        </mxCell>
        <mxCell id="FrWV9Yk9Voi0F-BZQr_6-20" value="" style="shape=ellipse;" parent="FrWV9Yk9Voi0F-BZQr_6-19" vertex="1">
          <mxGeometry x="1" width="20" height="16" relative="1" as="geometry">
            <mxPoint x="-25" y="7" as="offset" />
          </mxGeometry>
        </mxCell>
        <mxCell id="FrWV9Yk9Voi0F-BZQr_6-21" value="" style="line;strokeWidth=1;fillColor=none;align=left;verticalAlign=middle;spacingTop=-1;spacingLeft=3;spacingRight=3;rotatable=0;labelPosition=right;points=[];portConstraint=eastwest;" parent="FrWV9Yk9Voi0F-BZQr_6-18" vertex="1">
          <mxGeometry y="24" width="130" height="8" as="geometry" />
        </mxCell>
        <mxCell id="FrWV9Yk9Voi0F-BZQr_6-22" value="." style="html=1;align=center;spacingLeft=4;verticalAlign=top;strokeColor=none;fillColor=none;fontSize=6;" parent="FrWV9Yk9Voi0F-BZQr_6-18" vertex="1">
          <mxGeometry y="32" width="130" height="8" as="geometry" />
        </mxCell>
        <mxCell id="FrWV9Yk9Voi0F-BZQr_6-24" style="edgeStyle=orthogonalEdgeStyle;rounded=0;orthogonalLoop=1;jettySize=auto;html=1;entryX=0;entryY=0.5;entryDx=0;entryDy=0;endArrow=open;endFill=0;" parent="D4k8mGF5kEXI2dwwQXFX-1" source="FrWV9Yk9Voi0F-BZQr_6-23" target="FrWV9Yk9Voi0F-BZQr_6-6" edge="1">
          <mxGeometry relative="1" as="geometry" />
        </mxCell>
        <mxCell id="FrWV9Yk9Voi0F-BZQr_6-25" style="rounded=0;orthogonalLoop=1;jettySize=auto;html=1;entryX=0;entryY=0.5;entryDx=0;entryDy=0;endArrow=open;endFill=0;exitX=1;exitY=0.25;exitDx=0;exitDy=0;" parent="D4k8mGF5kEXI2dwwQXFX-1" source="FrWV9Yk9Voi0F-BZQr_6-26" target="FrWV9Yk9Voi0F-BZQr_6-14" edge="1">
          <mxGeometry relative="1" as="geometry" />
        </mxCell>
        <mxCell id="gdsuhqMnZrdAe9ZSeIL8-1" style="rounded=0;orthogonalLoop=1;jettySize=auto;html=1;entryX=1;entryY=0.5;entryDx=0;entryDy=0;endArrow=block;endFill=0;exitX=0;exitY=0.5;exitDx=0;exitDy=0;" parent="D4k8mGF5kEXI2dwwQXFX-1" source="FrWV9Yk9Voi0F-BZQr_6-23" target="gdsuhqMnZrdAe9ZSeIL8-0" edge="1">
          <mxGeometry relative="1" as="geometry" />
        </mxCell>
        <mxCell id="FrWV9Yk9Voi0F-BZQr_6-23" value="&amp;lt;&amp;lt;actor&amp;gt;&amp;gt;&lt;br&gt;&lt;b&gt;Daemon&lt;/b&gt;" style="text;html=1;align=center;verticalAlign=middle;dashed=0;strokeColor=#000000;strokeWidth=2;" parent="D4k8mGF5kEXI2dwwQXFX-1" vertex="1">
          <mxGeometry x="120" y="160" width="80" height="40" as="geometry" />
        </mxCell>
        <mxCell id="FrWV9Yk9Voi0F-BZQr_6-30" style="edgeStyle=none;rounded=0;orthogonalLoop=1;jettySize=auto;html=1;entryX=0;entryY=1;entryDx=0;entryDy=0;endArrow=open;endFill=0;exitX=1;exitY=0.5;exitDx=0;exitDy=0;" parent="D4k8mGF5kEXI2dwwQXFX-1" source="FrWV9Yk9Voi0F-BZQr_6-26" target="FrWV9Yk9Voi0F-BZQr_6-19" edge="1">
          <mxGeometry relative="1" as="geometry" />
        </mxCell>
        <mxCell id="gdsuhqMnZrdAe9ZSeIL8-2" style="edgeStyle=none;rounded=0;orthogonalLoop=1;jettySize=auto;html=1;exitX=0;exitY=0.5;exitDx=0;exitDy=0;endArrow=block;endFill=0;" parent="D4k8mGF5kEXI2dwwQXFX-1" source="FrWV9Yk9Voi0F-BZQr_6-26" edge="1">
          <mxGeometry relative="1" as="geometry">
            <mxPoint x="80" y="260" as="targetPoint" />
          </mxGeometry>
        </mxCell>
        <mxCell id="FrWV9Yk9Voi0F-BZQr_6-26" value="&amp;lt;&amp;lt;actor&amp;gt;&amp;gt;&lt;br&gt;&lt;b&gt;Security &lt;br&gt;Specialist&lt;/b&gt;" style="text;html=1;align=center;verticalAlign=middle;dashed=0;strokeColor=#000000;strokeWidth=2;" parent="D4k8mGF5kEXI2dwwQXFX-1" vertex="1">
          <mxGeometry x="120" y="240" width="80" height="40" as="geometry" />
        </mxCell>
        <mxCell id="FrWV9Yk9Voi0F-BZQr_6-28" style="edgeStyle=none;rounded=0;orthogonalLoop=1;jettySize=auto;html=1;entryX=0;entryY=1;entryDx=0;entryDy=0;endArrow=open;endFill=0;exitX=1;exitY=0.5;exitDx=0;exitDy=0;" parent="D4k8mGF5kEXI2dwwQXFX-1" source="FrWV9Yk9Voi0F-BZQr_6-27" target="FrWV9Yk9Voi0F-BZQr_6-14" edge="1">
          <mxGeometry relative="1" as="geometry" />
        </mxCell>
        <mxCell id="FrWV9Yk9Voi0F-BZQr_6-31" style="edgeStyle=none;rounded=0;orthogonalLoop=1;jettySize=auto;html=1;endArrow=open;endFill=0;exitX=1;exitY=0.75;exitDx=0;exitDy=0;entryX=0;entryY=0.25;entryDx=0;entryDy=0;" parent="D4k8mGF5kEXI2dwwQXFX-1" source="FrWV9Yk9Voi0F-BZQr_6-27" target="FrWV9Yk9Voi0F-BZQr_6-22" edge="1">
          <mxGeometry relative="1" as="geometry">
            <mxPoint x="260" y="348.5" as="targetPoint" />
          </mxGeometry>
        </mxCell>
        <mxCell id="gdsuhqMnZrdAe9ZSeIL8-3" style="edgeStyle=none;rounded=0;orthogonalLoop=1;jettySize=auto;html=1;exitX=0;exitY=0.5;exitDx=0;exitDy=0;endArrow=block;endFill=0;" parent="D4k8mGF5kEXI2dwwQXFX-1" source="FrWV9Yk9Voi0F-BZQr_6-27" edge="1">
          <mxGeometry relative="1" as="geometry">
            <mxPoint x="80" y="260" as="targetPoint" />
          </mxGeometry>
        </mxCell>
        <mxCell id="FrWV9Yk9Voi0F-BZQr_6-27" value="&amp;lt;&amp;lt;actor&amp;gt;&amp;gt;&lt;br&gt;&lt;b&gt;Maintenance &lt;br&gt;Specialist&lt;/b&gt;" style="text;html=1;align=center;verticalAlign=middle;dashed=0;strokeColor=#000000;strokeWidth=2;" parent="D4k8mGF5kEXI2dwwQXFX-1" vertex="1">
          <mxGeometry x="120" y="320" width="80" height="40" as="geometry" />
        </mxCell>
        <mxCell id="FrWV9Yk9Voi0F-BZQr_6-32" value="It is best if Security Specialists access Logs indirectly, via a 3rd party SIEM to which the Diagnostics Log entries have been exported." style="shape=note;whiteSpace=wrap;html=1;size=14;verticalAlign=top;align=left;spacingTop=-6;strokeWidth=1;fontSize=12;fontStyle=2;spacingRight=16;" parent="D4k8mGF5kEXI2dwwQXFX-1" vertex="1">
          <mxGeometry x="410" y="291.5" width="160" height="88.5" as="geometry" />
        </mxCell>
        <mxCell id="gdsuhqMnZrdAe9ZSeIL8-0" value="&amp;lt;&amp;lt;actor&amp;gt;&amp;gt;&lt;br&gt;&lt;b&gt;authorised &lt;br&gt;user&lt;/b&gt;" style="text;html=1;align=center;verticalAlign=middle;dashed=0;strokeColor=#000000;strokeWidth=2;" parent="D4k8mGF5kEXI2dwwQXFX-1" vertex="1">
          <mxGeometry y="240" width="80" height="40" as="geometry" />
        </mxCell>
        <mxCell id="-ussEjuwxVybMolgrwMT-0" value="Title" parent="D4k8mGF5kEXI2dwwQXFX-0" visible="0" />
        <mxCell id="D4k8mGF5kEXI2dwwQXFX-10" value="&lt;font style=&quot;font-size: 12px&quot;&gt;Diagram: Base System Logical Module -&amp;nbsp;Functionality -&amp;nbsp;Diagnostics&lt;/font&gt;" style="text;strokeColor=none;fillColor=none;html=1;fontSize=24;fontStyle=2;verticalAlign=middle;align=left;shadow=0;glass=0;comic=0;opacity=30;fontColor=#808080;" parent="-ussEjuwxVybMolgrwMT-0" vertex="1">
          <mxGeometry x="120" y="420" width="520" height="20" as="geometry" />
        </mxCell>
        <mxCell id="-ussEjuwxVybMolgrwMT-1" value="Information" parent="D4k8mGF5kEXI2dwwQXFX-0" visible="0" />
        <UserObject label="" tooltip="ABOUT&#xa;&#xa;Functionality &#xa;within the Base Logical Module&#xa;for handling common Diagnostic Tracing.&#xa;Diagnostic tracing is not saved to the Core relational database -- it usually goes to a rolling text log file, and sometimes is saved asynchronously to an cloud service.&#xa;&#xa;System specific Diagnostic log files should be local to the system (for both latency and access reasons) -- then exported to a central location for security and/or enterprise monitoring reasons." id="D4k8mGF5kEXI2dwwQXFX-12">
          <mxCell style="shape=image;html=1;verticalAlign=top;verticalLabelPosition=bottom;labelBackgroundColor=#ffffff;imageAspect=0;aspect=fixed;image=https://cdn1.iconfinder.com/data/icons/hawcons/32/699014-icon-28-information-128.png;shadow=0;dashed=0;fontFamily=Helvetica;fontSize=12;fontColor=#000000;align=center;strokeColor=#000000;fillColor=#505050;dashPattern=1 1;" parent="-ussEjuwxVybMolgrwMT-1" vertex="1">
            <mxGeometry x="660" y="380" width="20" height="20" as="geometry" />
          </mxCell>
        </UserObject>
      </root>
    </mxGraphModel>
  </diagram>
</mxfile>
